<svg width="39" height="39" viewBox="0 0 39 39" fill="none" xmlns="http://www.w3.org/2000/svg">
<path d="M19.5 0C30.27 0 39 8.73 39 19.5C39 30.27 30.27 39 19.5 39C8.73 39 0 30.27 0 19.5C0 8.73 8.73 0 19.5 0Z" fill="#FDD600"/>
<mask id="mask0_3078_765" style="mask-type:luminance" maskUnits="userSpaceOnUse" x="0" y="0" width="39" height="39">
<path d="M19.5 39C30.2696 39 39 30.2696 39 19.5C39 8.73045 30.2696 0 19.5 0C8.73045 0 0 8.73045 0 19.5C0 30.2696 8.73045 39 19.5 39Z" fill="white"/>
</mask>
<g mask="url(#mask0_3078_765)">
<path d="M35.9301 45.15C35.9301 45.7 35.4801 46.15 34.9301 46.15C34.3801 46.15 33.9301 45.7 33.9301 45.15C33.9301 45.7 33.4801 46.15 32.9301 46.15C32.3801 46.15 31.9301 45.7 31.9301 45.15V44.27C31.3801 44.34 30.8201 44.37 30.2601 44.37H30.1301C29.4001 44.37 28.6601 44.29 27.9401 44.17V45.15C27.9401 45.7 27.4901 46.15 26.9401 46.15C26.3901 46.15 25.9401 45.7 25.9401 45.15C25.9401 45.7 25.4901 46.15 24.9401 46.15C24.3901 46.15 23.9401 45.7 23.9401 45.15C23.9401 45.7 23.4901 46.15 22.9401 46.15C22.3901 46.15 21.9401 45.7 21.9401 45.15V42.17C21.9401 42.06 21.9601 41.95 22.0001 41.84C20.5001 40.87 19.1301 39.72 17.9301 38.41L18.7901 42.29C16.4801 40.73 14.4601 38.77 12.8401 36.5C10.6701 33.28 9.04005 29.01 12.0301 26C11.9401 25.29 11.9001 24.58 11.9001 23.87C11.7601 19.47 13.8701 15.29 17.4901 12.79C16.4801 12.35 15.5201 11.82 14.6201 11.2C12.2701 9.54 11.2501 7.05 11.4401 6.43C11.4601 6.34 11.5401 6.28 11.6301 6.28C11.7801 6.3 11.9301 6.37 12.0401 6.48C13.3701 7.55 22.4601 9.01 29.7401 9.33H30.1201C30.6601 9.33 31.2001 9.34 31.7201 9.37C38.9701 9.32 47.9201 7.32 49.4801 6.48C49.6501 6.38 49.8301 6.31 50.0201 6.28C50.0701 6.28 50.1301 6.3 50.1501 6.35C50.3101 6.7 49.0301 8.47 46.6401 11.2C45.7601 12.13 44.6901 12.87 43.5001 13.35C45.0101 14.54 46.2201 16.06 47.0601 17.79C47.9401 19.69 48.3901 21.77 48.3601 23.87C48.3601 24.63 48.3101 25.39 48.2101 26.15C51.0201 29.15 49.4101 33.34 47.2701 36.5C45.6501 38.77 43.6301 40.73 41.3201 42.29L42.1101 38.73C40.8701 40.05 39.4601 41.2 37.9201 42.14V45.16C37.9201 45.71 37.4701 46.16 36.9201 46.16C36.6501 46.16 36.4001 46.06 36.2101 45.87C36.0301 45.68 35.9401 45.42 35.9401 45.16L35.9301 45.15ZM27.5701 29.63C27.3801 29.9 27.3401 30.24 27.4501 30.55L29.0001 34.69C29.1401 35.08 29.5201 35.34 29.9301 35.34C30.3501 35.34 30.7201 35.09 30.8701 34.69L32.4201 30.55C32.5401 30.24 32.4901 29.9 32.3001 29.63C32.1201 29.36 31.8101 29.2 31.4801 29.2H28.3801C28.0501 29.2 27.7401 29.36 27.5501 29.63H27.5701ZM32.1401 23.28C32.1401 26.86 35.0401 29.76 38.6201 29.76C42.2001 29.76 45.1001 26.86 45.1001 23.28C45.1001 19.7 42.2001 16.8 38.6201 16.8C35.0401 16.8 32.1401 19.7 32.1301 23.28H32.1401ZM15.1901 23.28C15.1901 26.86 18.0901 29.76 21.6701 29.76C25.2501 29.76 28.1501 26.86 28.1501 23.28C28.1501 19.7 25.2501 16.8 21.6701 16.8C18.0901 16.8 15.1901 19.7 15.1801 23.28H15.1901ZM34.1401 23.28C34.1401 20.8 36.1501 18.8 38.6301 18.79C41.1101 18.79 43.1101 20.8 43.1201 23.28C43.1201 23.73 43.0501 24.18 42.9201 24.62C42.8701 23.28 41.7701 22.22 40.4301 22.23C39.0501 22.23 37.9401 23.35 37.9401 24.72C37.9401 26.1 39.0601 27.21 40.4301 27.21C40.5801 27.21 40.7301 27.2 40.8701 27.17C40.1901 27.56 39.4201 27.77 38.6301 27.77C36.1501 27.77 34.1401 25.76 34.1401 23.28ZM17.1901 23.28C17.1901 20.8 19.2001 18.8 21.6801 18.79C24.1601 18.79 26.1601 20.8 26.1701 23.28C26.1701 23.73 26.1001 24.18 25.9701 24.62C25.9201 23.28 24.8201 22.23 23.4801 22.23C22.1001 22.23 20.9901 23.35 20.9901 24.72C20.9901 26.1 22.1101 27.21 23.4801 27.21C23.6301 27.21 23.7801 27.2 23.9301 27.17C23.2501 27.56 22.4801 27.77 21.6901 27.77C20.5001 27.77 19.3501 27.3 18.5101 26.46C17.6701 25.62 17.1901 24.48 17.1901 23.28Z" fill="#FF7700"/>
</g>
</svg>
