<svg width="30" height="30" viewBox="0 0 30 30" fill="none" xmlns="http://www.w3.org/2000/svg">
<g clip-path="url(#clip0_3143_1236)">
<path d="M9.78999 18.13C7.15999 18.13 4.84999 19.85 4.08999 22.37C3.95999 22.73 3.61999 22.96 3.22999 22.95C2.57999 22.95 0.56999 21.33 -0.0100098 20.94C-0.0100098 25.77 2.20999 30.01 7.48999 30.01C11.93 30.01 14.99 27.44 14.99 22.97C14.99 22.79 14.96 22.61 14.93 22.44L9.76999 18.14L9.78999 18.13ZM26.83 4.08012e-06C25.95 0.0200041 25.11 0.360004 24.47 0.960004C12.5 11.66 11.25 11.91 11.25 15.06C11.25 15.84 11.43 16.62 11.76 17.33L15.5 20.44C15.93 20.55 16.37 20.61 16.81 20.62C20.45 20.62 22.56 17.96 29.18 5.59C29.66 4.77 29.94 3.84 29.99 2.89C29.91 1.22 28.49 -0.0799959 26.82 -0.00999592L26.83 4.08012e-06Z" fill="#4EA2EC"/>
</g>
<defs>
<clipPath id="clip0_3143_1236">
<rect width="30" height="30" fill="white"/>
</clipPath>
</defs>
</svg>
