<svg width="30" height="30" viewBox="0 0 30 30" fill="none" xmlns="http://www.w3.org/2000/svg">
<g clip-path="url(#clip0_3143_1231)">
<path d="M29.17 8.31999L26.47 11.02C26.2 11.3 25.76 11.3 25.48 11.03C25.48 11.03 25.48 11.03 25.47 11.02L18.97 4.52C18.69 4.25 18.69 3.81 18.96 3.53C18.96 3.53 18.96 3.53 18.97 3.52L21.67 0.819995C22.77 -0.280005 24.55 -0.280005 25.65 0.819995L29.17 4.34C30.27 5.43 30.27 7.21 29.17 8.31V8.31999ZM16.65 5.84L1.26001 21.23L0.0200083 28.35C-0.109992 29.12 0.400008 29.85 1.17001 29.98C1.33001 30.01 1.49001 30.01 1.65001 29.98L8.77001 28.73L24.16 13.34C24.44 13.07 24.44 12.63 24.17 12.35C24.17 12.35 24.17 12.35 24.16 12.34L17.66 5.84C17.38 5.57 16.94 5.57 16.66 5.84H16.65ZM7.27001 19.91C6.95001 19.59 6.95001 19.07 7.27001 18.75L16.3 9.72999C16.62 9.41 17.14 9.41 17.46 9.72999C17.78 10.05 17.78 10.57 17.46 10.89L8.43001 19.91C8.11001 20.23 7.59001 20.23 7.27001 19.91ZM5.15001 24.84H7.96001V26.97L4.18001 27.63L2.36001 25.81L3.02001 22.03H5.15001V24.84Z" fill="#AD4EEC"/>
</g>
<defs>
<clipPath id="clip0_3143_1231">
<rect width="30" height="30" fill="white"/>
</clipPath>
</defs>
</svg>
