<svg width="30" height="30" viewBox="0 0 30 30" fill="none" xmlns="http://www.w3.org/2000/svg">
<g clip-path="url(#clip0_3143_1241)">
<mask id="mask0_3143_1241" style="mask-type:luminance" maskUnits="userSpaceOnUse" x="0" y="0" width="30" height="30">
<path d="M30 0H0V30H30V0Z" fill="white"/>
</mask>
<g mask="url(#mask0_3143_1241)">
<path d="M9.44 21.25C8.93 20.74 9.2 20.88 7.97 20.56C7.43 20.4 6.92 20.14 6.48 19.78L3.82 26.3C3.62 26.78 3.86 27.33 4.34 27.52C4.46 27.57 4.59 27.59 4.72 27.59L7.81 27.47L9.93 29.71C10.29 30.09 10.88 30.1 11.25 29.75C11.35 29.66 11.42 29.55 11.47 29.42L14.52 21.94C12.86 22.9 10.77 22.61 9.43 21.25H9.44ZM26.18 26.29L23.52 19.77C23.08 20.13 22.57 20.39 22.03 20.55C20.79 20.88 21.07 20.74 20.56 21.24C19.22 22.6 17.12 22.89 15.47 21.93L18.52 29.41C18.71 29.89 19.26 30.12 19.74 29.93C19.86 29.88 19.98 29.8 20.07 29.71L22.19 27.47L25.28 27.59C25.8 27.61 26.23 27.2 26.25 26.68C26.25 26.55 26.23 26.42 26.18 26.3V26.29ZM19.16 19.92C20.06 19.01 20.16 19.09 21.43 18.74C22.25 18.51 22.89 17.86 23.1 17.04C23.2 15.97 23.75 14.99 24.62 14.36C25.22 13.75 25.45 12.87 25.23 12.04C24.79 11.05 24.79 9.93001 25.23 8.94001C25.45 8.11001 25.22 7.23001 24.62 6.62001C23.75 5.98001 23.2 5.01001 23.1 3.94001C22.89 3.12001 22.25 2.47001 21.43 2.24001C20.37 2.13001 19.41 1.57001 18.8 0.70001C18.21 0.10001 17.34 -0.13999 16.52 0.0800104C15.56 0.53001 14.44 0.53001 13.48 0.0800104C12.66 -0.13999 11.79 0.0900104 11.2 0.70001C10.59 1.58001 9.63 2.14001 8.57 2.25001C7.75 2.48001 7.11 3.13001 6.9 3.95001C6.8 5.02001 6.25 6.00001 5.38 6.63001C4.78 7.24001 4.55 8.12001 4.77 8.95001C5.21 9.94001 5.21 11.06 4.77 12.05C4.55 12.88 4.78 13.76 5.38 14.37C6.25 15.01 6.8 15.98 6.9 17.05C7.11 17.87 7.75 18.52 8.57 18.75C9.88 19.11 9.98 19.05 10.84 19.93C11.61 20.71 12.82 20.85 13.75 20.27C14.51 19.79 15.48 19.79 16.24 20.27C17.17 20.86 18.39 20.72 19.16 19.93V19.92ZM9.47 10.31C9.52 7.26001 12.04 4.83001 15.1 4.88001C18.16 4.93001 20.58 7.45001 20.53 10.51C20.48 13.52 18.02 15.94 15 15.94C11.92 15.91 9.45 13.39 9.47 10.31Z" fill="#FF7700"/>
</g>
</g>
<defs>
<clipPath id="clip0_3143_1241">
<rect width="30" height="30" fill="white"/>
</clipPath>
</defs>
</svg>
