<svg width="190" height="46" viewBox="0 0 190 46" fill="none" xmlns="http://www.w3.org/2000/svg">
<g clip-path="url(#clip0_3054_171)">
<path d="M162.6 43.8C143.8 47.91 99.05 44.66 64.34 45.57C29.63 46.48 3.82 41.79 0.38 25.76C-2.26 13.47 8.66 1.02 42.54 0.8C78.68 0.57 104.7 -0.54 133.67 0.33C162.21 1.19 188.38 -0.729999 189.68 19.12C190.77 35.9 176.99 40.65 162.59 43.8H162.6Z" fill="#FDD600"/>
<path d="M127.54 43.91H124.52C124.1 43.91 123.77 43.57 123.77 43.16C123.77 42.75 124.11 42.41 124.52 42.41H127.54C127.96 42.41 128.29 42.75 128.29 43.16C128.29 43.57 127.95 43.91 127.54 43.91ZM131.16 43.91C130.74 43.91 130.41 43.57 130.41 43.16C130.41 42.75 130.75 42.41 131.16 42.41H134.15C134.57 42.41 134.9 42.75 134.9 43.16C134.9 43.57 134.56 43.91 134.15 43.91H131.13H131.16ZM120.98 43.91H117.96C117.54 43.91 117.21 43.57 117.21 43.16C117.21 42.75 117.55 42.41 117.96 42.41H120.98C121.4 42.41 121.73 42.75 121.73 43.16C121.73 43.57 121.39 43.91 120.98 43.91ZM137.75 43.85C137.33 43.85 137 43.51 137 43.1C137 42.69 137.34 42.35 137.75 42.35C138.76 42.35 139.77 42.33 140.77 42.28C141.19 42.26 141.54 42.58 141.56 43C141.58 43.42 141.26 43.77 140.84 43.79C140.84 43.79 140.82 43.79 140.81 43.79C139.83 43.82 138.82 43.85 137.79 43.86H137.74L137.75 43.85ZM114.4 43.85L111.38 43.81C110.95 43.79 110.61 43.43 110.63 43C110.64 42.59 110.97 42.26 111.38 42.25L114.4 42.29C114.82 42.31 115.15 42.67 115.13 43.09C115.11 43.49 114.78 43.81 114.38 43.82L114.4 43.86V43.85ZM107.81 43.76L104.79 43.72C104.37 43.72 104.04 43.38 104.04 42.97C104.04 42.56 104.38 42.22 104.79 42.22L107.81 42.26C108.23 42.26 108.56 42.6 108.56 43.01C108.56 43.42 108.22 43.76 107.81 43.76ZM58.71 43.72C58.28 43.74 57.92 43.41 57.9 42.99C57.88 42.57 58.21 42.2 58.63 42.18C58.65 42.18 58.66 42.18 58.68 42.18H61.7C62.11 42.18 62.45 42.51 62.47 42.93C62.47 43.35 62.14 43.68 61.72 43.69H58.7V43.73L58.71 43.72ZM55.09 43.72C54.08 43.72 53.07 43.72 52.07 43.67C51.65 43.67 51.31 43.33 51.31 42.92C51.31 42.5 51.65 42.16 52.06 42.16C52.07 42.16 52.09 42.16 52.1 42.16C53.08 42.16 54.08 42.2 55.12 42.21C55.54 42.21 55.87 42.55 55.87 42.96C55.87 43.37 55.53 43.71 55.12 43.71H55.08L55.09 43.72ZM101.2 43.68L98.18 43.64C97.76 43.64 97.43 43.3 97.43 42.89C97.43 42.48 97.77 42.14 98.18 42.14L101.2 42.18C101.62 42.18 101.95 42.52 101.95 42.93C101.95 43.34 101.61 43.68 101.2 43.68ZM144.3 43.68C143.88 43.7 143.53 43.38 143.51 42.96C143.49 42.54 143.81 42.19 144.23 42.17C144.25 42.17 144.26 42.17 144.28 42.17C145.29 42.13 146.29 42.08 147.26 42.02C147.68 42 148.03 42.32 148.06 42.73C148.04 43.11 147.73 43.42 147.35 43.44C146.38 43.49 145.38 43.54 144.33 43.59V43.67L144.3 43.68ZM65.24 43.68C64.82 43.68 64.49 43.34 64.49 42.93C64.49 42.52 64.83 42.18 65.24 42.18H65.73L68.24 42.13C68.66 42.13 68.99 42.47 68.99 42.88C68.99 43.29 68.65 43.63 68.24 43.63L65.74 43.68H65.24ZM94.58 43.62H91.57C91.15 43.62 90.82 43.27 90.82 42.85C90.82 42.44 91.16 42.11 91.57 42.11H94.59C94.98 42.11 95.31 42.4 95.35 42.79C95.35 43.19 95.02 43.52 94.61 43.53L94.58 43.61V43.62ZM48.48 43.62C47.47 43.58 46.47 43.54 45.46 43.48C45.05 43.42 44.76 43.04 44.82 42.63C44.87 42.27 45.17 42 45.54 41.98C46.52 42.03 47.51 42.08 48.52 42.11C48.94 42.13 49.26 42.49 49.24 42.9C49.22 43.3 48.89 43.61 48.49 43.62H48.48ZM71.83 43.62C71.41 43.62 71.08 43.28 71.08 42.87C71.08 42.46 71.42 42.12 71.83 42.12H74.85C75.27 42.12 75.6 42.46 75.6 42.87C75.6 43.28 75.26 43.62 74.85 43.62H71.83ZM87.99 43.62H84.98C84.56 43.62 84.23 43.28 84.23 42.87C84.23 42.46 84.57 42.12 84.98 42.12H88C88.42 42.12 88.75 42.46 88.75 42.87C88.75 43.28 88.41 43.62 88 43.62H87.99ZM81.43 43.45H78.42C78 43.45 77.67 43.11 77.67 42.7C77.67 42.29 78.01 41.95 78.42 41.95H81.44C81.86 41.95 82.19 42.29 82.19 42.7C82.19 43.11 81.85 43.45 81.44 43.45H81.43ZM150.87 43.23C150.45 43.2 150.14 42.85 150.16 42.43C150.18 42.07 150.46 41.78 150.81 41.73C151.83 41.65 152.82 41.56 153.77 41.46C154.18 41.41 154.56 41.7 154.61 42.12C154.66 42.54 154.37 42.91 153.95 42.96C153.94 42.96 153.93 42.96 153.91 42.96C152.95 43.06 151.95 43.15 150.89 43.23H150.85H150.87ZM41.93 43.14H41.88C40.87 43.07 39.86 42.98 38.86 42.89C38.44 42.89 38.11 42.53 38.12 42.12C38.12 41.7 38.48 41.37 38.89 41.38C38.92 41.38 38.96 41.38 38.99 41.38C39.97 41.47 40.96 41.55 41.96 41.62C42.38 41.63 42.7 41.98 42.69 42.4C42.68 42.82 42.33 43.14 41.91 43.13C41.91 43.13 41.91 43.13 41.9 43.13H41.92L41.93 43.14ZM157.43 42.54C157.01 42.54 156.68 42.2 156.68 41.79C156.68 41.42 156.95 41.1 157.32 41.04C158.37 40.89 159.35 40.72 160.23 40.55H160.37C160.78 40.46 161.18 40.73 161.26 41.14C161.35 41.55 161.08 41.95 160.67 42.03L160.51 42.06C159.61 42.24 158.6 42.42 157.49 42.57L157.41 42.54H157.43ZM35.38 42.54H35.29C34.28 42.42 33.28 42.29 32.3 42.15C31.89 42.1 31.6 41.74 31.65 41.33C31.7 40.92 32.06 40.63 32.47 40.68C32.49 40.68 32.51 40.68 32.52 40.68C33.48 40.81 34.46 40.95 35.46 41.06C35.87 41.12 36.16 41.5 36.1 41.91C36.05 42.27 35.74 42.55 35.38 42.56V42.53V42.54ZM28.87 41.59H28.74C27.72 41.4 26.72 41.21 25.78 40.99C25.37 40.91 25.1 40.52 25.18 40.11C25.26 39.7 25.65 39.43 26.06 39.51C26.07 39.51 26.09 39.51 26.1 39.51C27.03 39.71 28.01 39.9 29.01 40.11C29.42 40.17 29.71 40.55 29.65 40.96C29.6 41.34 29.26 41.62 28.88 41.61V41.58L28.87 41.59ZM164.05 41.27C163.63 41.27 163.29 40.94 163.29 40.52C163.29 40.16 163.54 39.85 163.88 39.78C164.89 39.55 165.86 39.31 166.76 39.09C167.16 38.98 167.57 39.22 167.68 39.62C167.78 40.02 167.54 40.44 167.14 40.54C166.22 40.78 165.24 41.02 164.21 41.25L164.04 41.27H164.05ZM22.43 40.14C22.36 40.14 22.3 40.14 22.23 40.14C21.23 39.83 20.25 39.55 19.31 39.22C18.91 39.12 18.66 38.71 18.76 38.31C18.86 37.91 19.27 37.66 19.67 37.76C19.71 37.76 19.74 37.78 19.78 37.8C20.68 38.09 21.63 38.37 22.61 38.64C23.01 38.74 23.26 39.15 23.16 39.56C23.07 39.9 22.77 40.13 22.42 40.13L22.44 40.15L22.43 40.14ZM170.4 39.54C169.98 39.54 169.65 39.2 169.65 38.78C169.65 38.45 169.86 38.16 170.18 38.07C171.15 37.76 172.09 37.43 172.96 37.09C173.36 36.97 173.79 37.2 173.91 37.6C174.02 37.96 173.85 38.34 173.51 38.5C172.61 38.84 171.64 39.18 170.64 39.5C170.57 39.53 170.49 39.55 170.41 39.56V39.54H170.4ZM16.2 38.02C16.1 38.02 15.99 38 15.9 37.96C14.93 37.56 14 37.11 13.14 36.67C12.77 36.47 12.64 36.01 12.84 35.65C13.03 35.29 13.48 35.15 13.84 35.33C14.66 35.77 15.55 36.18 16.49 36.57C16.88 36.72 17.07 37.16 16.91 37.54C16.8 37.83 16.51 38.02 16.2 38.02ZM176.52 37.1C176.1 37.1 175.77 36.76 175.77 36.34C175.77 36.06 175.93 35.8 176.18 35.67C177.05 35.23 177.88 34.75 178.69 34.21C179.02 33.95 179.5 34 179.76 34.33C180.02 34.66 179.97 35.14 179.64 35.4C179.61 35.43 179.57 35.45 179.53 35.47C178.66 36.04 177.76 36.57 176.84 37.04C176.74 37.09 176.64 37.12 176.53 37.12V37.1H176.52ZM10.42 34.9C10.26 34.9 10.11 34.85 9.98 34.75C9.12 34.15 8.31 33.49 7.56 32.77C7.25 32.49 7.22 32.02 7.5 31.71C7.78 31.4 8.25 31.37 8.56 31.65C8.58 31.67 8.6 31.68 8.61 31.7C9.3 32.36 10.03 32.96 10.81 33.51C11.15 33.75 11.23 34.22 10.99 34.56C10.85 34.76 10.61 34.88 10.37 34.88L10.41 34.9H10.42ZM181.9 33.38C181.7 33.38 181.5 33.3 181.36 33.15C181.07 32.85 181.07 32.38 181.36 32.08C182.05 31.42 182.66 30.7 183.21 29.92C183.43 29.57 183.9 29.47 184.25 29.69C184.6 29.91 184.7 30.38 184.48 30.73C184.48 30.74 184.46 30.75 184.46 30.77C183.86 31.64 183.18 32.45 182.43 33.18C182.28 33.31 182.09 33.38 181.9 33.37V33.38ZM5.87 30.22C5.61 30.22 5.37 30.09 5.23 29.86C4.67 28.97 4.21 28.02 3.86 27.03C3.7 26.65 3.88 26.2 4.26 26.04C4.64 25.88 5.09 26.06 5.25 26.44C5.26 26.48 5.28 26.51 5.29 26.55C5.6 27.44 6 28.28 6.5 29.08C6.72 29.43 6.61 29.9 6.26 30.12C6.14 30.19 6.01 30.22 5.88 30.22H5.87ZM185.5 27.95C185.41 27.95 185.32 27.93 185.23 27.9C184.84 27.75 184.65 27.32 184.79 26.93C185.12 26.04 185.37 25.12 185.52 24.18C185.59 23.77 185.98 23.49 186.39 23.56C186.8 23.63 187.08 24.02 187.01 24.43C186.84 25.46 186.57 26.47 186.2 27.45C186.09 27.75 185.81 27.94 185.49 27.95H185.5ZM3.85 24.03C3.45 24.03 3.12 23.73 3.1 23.33V22.38C3.1 21.64 3.16 20.9 3.29 20.17C3.35 19.76 3.74 19.47 4.15 19.54C4.56 19.6 4.85 19.99 4.78 20.4C4.78 20.41 4.78 20.42 4.78 20.43C4.67 21.07 4.62 21.72 4.62 22.37V23.22C4.65 23.64 4.34 24 3.92 24.03H3.87H3.85ZM186.52 21.49C186.11 21.49 185.78 21.16 185.77 20.75C185.77 20.38 185.77 20.01 185.72 19.64C185.68 19.06 185.61 18.48 185.5 17.9C185.42 17.49 185.69 17.1 186.1 17.02C186.51 16.94 186.9 17.21 186.98 17.62C187.09 18.25 187.17 18.89 187.22 19.53C187.25 19.93 187.27 20.33 187.27 20.74C187.28 21.15 186.96 21.5 186.55 21.51C186.55 21.51 186.55 21.51 186.54 21.51L186.52 21.48V21.49ZM5.13 17.66C5.01 17.66 4.89 17.63 4.79 17.58C4.42 17.39 4.27 16.94 4.46 16.57C4.94 15.63 5.52 14.75 6.18 13.94C6.44 13.62 6.91 13.56 7.23 13.82C7.23 13.82 7.24 13.82 7.25 13.83C7.57 14.09 7.62 14.57 7.36 14.89C6.76 15.62 6.23 16.41 5.8 17.25C5.67 17.5 5.42 17.66 5.13 17.66ZM185.15 15.12C184.86 15.12 184.59 14.96 184.47 14.69C184.07 13.85 183.56 13.05 182.97 12.33C182.72 11.99 182.8 11.52 183.13 11.28C183.44 11.05 183.87 11.1 184.13 11.38C184.8 12.2 185.37 13.09 185.83 14.04C186.01 14.42 185.85 14.87 185.47 15.05C185.37 15.1 185.26 15.12 185.14 15.12H185.15ZM9.31 12.67C8.89 12.67 8.55 12.33 8.55 11.92C8.55 11.69 8.65 11.48 8.83 11.33C9.63 10.68 10.48 10.09 11.36 9.55C11.7 9.31 12.17 9.4 12.41 9.74C12.65 10.08 12.56 10.55 12.22 10.79C12.2 10.81 12.17 10.82 12.15 10.83C11.33 11.33 10.54 11.89 9.79 12.5C9.66 12.61 9.49 12.67 9.31 12.67ZM180.94 10.19C180.78 10.19 180.63 10.14 180.5 10.04C179.72 9.48 178.9 8.98 178.04 8.55C177.64 8.43 177.42 8 177.54 7.61C177.66 7.21 178.09 6.99 178.48 7.11C178.57 7.14 178.64 7.18 178.72 7.23C179.65 7.69 180.54 8.22 181.38 8.83C181.72 9.07 181.79 9.55 181.55 9.88C181.41 10.07 181.18 10.19 180.94 10.19ZM14.92 9.25C14.5 9.22 14.2 8.85 14.23 8.44C14.25 8.19 14.39 7.97 14.61 7.85C15.5 7.44 16.45 7.05 17.43 6.69C17.82 6.55 18.26 6.75 18.4 7.14C18.54 7.53 18.34 7.97 17.95 8.11C17 8.45 16.09 8.83 15.23 9.22C15.13 9.26 15.02 9.27 14.92 9.26V9.25ZM175.06 7.27C174.98 7.27 174.9 7.26 174.82 7.23C173.9 6.9 172.96 6.63 172 6.41C171.6 6.31 171.35 5.91 171.45 5.51C171.55 5.11 171.96 4.86 172.37 4.96C173.4 5.21 174.39 5.5 175.3 5.81C175.69 5.95 175.9 6.37 175.77 6.77C175.67 7.07 175.38 7.28 175.06 7.28V7.27ZM21.12 7.02C20.78 7.02 20.49 6.8 20.4 6.47C20.29 6.07 20.52 5.65 20.92 5.54C21.86 5.28 22.84 5.03 23.86 4.8C24.27 4.69 24.69 4.94 24.79 5.35C24.89 5.76 24.65 6.18 24.24 6.28C24.21 6.28 24.19 6.29 24.16 6.3C23.18 6.52 22.21 6.77 21.3 7.02C21.24 7.02 21.18 7.02 21.13 7.02H21.12ZM168.68 5.7H168.55C167.63 5.54 166.64 5.39 165.62 5.25C165.21 5.19 164.91 4.81 164.97 4.4C165.03 3.99 165.41 3.69 165.82 3.75C166.86 3.89 167.87 4.04 168.81 4.21C169.22 4.27 169.51 4.65 169.45 5.06C169.4 5.44 169.07 5.72 168.68 5.71V5.7ZM27.53 5.59C27.11 5.6 26.77 5.27 26.76 4.86C26.76 4.48 27.03 4.15 27.41 4.09C28.38 3.92 29.38 3.77 30.43 3.64C30.84 3.58 31.22 3.88 31.28 4.29C31.34 4.7 31.04 5.08 30.63 5.14C29.63 5.27 28.65 5.42 27.7 5.59H27.54H27.53ZM162.15 4.83H162.07C161.1 4.74 160.11 4.66 159.1 4.59C158.68 4.56 158.37 4.2 158.4 3.79C158.44 3.38 158.79 3.07 159.21 3.09C160.23 3.16 161.23 3.24 162.23 3.33C162.65 3.35 162.97 3.7 162.95 4.12C162.93 4.54 162.58 4.86 162.16 4.84H162.14L162.15 4.83ZM34.05 4.74C33.63 4.72 33.31 4.37 33.33 3.95C33.35 3.59 33.62 3.29 33.98 3.24C34.96 3.14 35.97 3.06 37 2.99C37.42 2.96 37.78 3.28 37.8 3.69C37.83 4.11 37.51 4.47 37.1 4.49C36.1 4.55 35.1 4.63 34.14 4.73H34.05V4.74ZM155.57 4.4H155.53C154.55 4.35 153.56 4.31 152.55 4.27C152.13 4.25 151.81 3.9 151.83 3.48C151.85 3.07 152.19 2.75 152.61 2.76C153.62 2.8 154.63 2.84 155.63 2.89C156.05 2.91 156.37 3.27 156.35 3.68C156.33 4.08 156 4.39 155.6 4.4H155.58H155.57ZM40.62 4.32C40.2 4.32 39.87 3.98 39.87 3.57C39.87 3.16 40.21 2.82 40.62 2.82C41.6 2.78 42.6 2.76 43.64 2.74C44.06 2.74 44.39 3.08 44.39 3.49C44.39 3.9 44.05 4.24 43.64 4.24C42.63 4.24 41.63 4.28 40.67 4.32H40.63H40.62ZM47.21 4.22C46.79 4.22 46.46 3.88 46.46 3.47C46.46 3.06 46.8 2.72 47.21 2.72H50.23C50.65 2.72 50.98 3.06 50.98 3.47C50.98 3.88 50.64 4.22 50.23 4.22H47.21ZM148.99 4.16L145.98 4.1C145.56 4.09 145.23 3.74 145.24 3.33C145.24 2.92 145.58 2.59 145.99 2.59L149.01 2.66C149.43 2.66 149.76 3 149.76 3.41C149.76 3.82 149.42 4.16 149.01 4.16H148.99ZM53.79 4.16C53.37 4.16 53.04 3.82 53.04 3.41C53.04 3 53.38 2.66 53.79 2.66L56.81 2.63C57.23 2.63 57.56 2.97 57.56 3.38C57.56 3.79 57.22 4.13 56.81 4.13L53.79 4.16ZM60.35 4.09C59.93 4.09 59.6 3.75 59.6 3.34C59.6 2.93 59.94 2.59 60.35 2.59L63.37 2.56C63.79 2.56 64.12 2.9 64.12 3.31C64.12 3.72 63.78 4.06 63.37 4.06L60.35 4.09ZM142.43 4.02L139.41 3.97C138.99 3.97 138.66 3.62 138.67 3.2C138.69 2.8 139.01 2.47 139.41 2.46L142.43 2.51C142.85 2.51 143.18 2.85 143.18 3.26C143.18 3.67 142.84 4.01 142.43 4.01V4.02ZM66.99 4.02C66.57 4.02 66.24 3.68 66.24 3.27C66.24 2.86 66.58 2.52 66.99 2.52L70.01 2.48C70.43 2.48 70.77 2.81 70.78 3.23C70.78 3.64 70.46 3.98 70.04 3.99L67.02 4.03H67L66.99 4.02ZM73.57 3.93C73.15 3.93 72.82 3.59 72.82 3.18C72.82 2.77 73.16 2.43 73.57 2.43L76.59 2.38C77.01 2.38 77.35 2.71 77.36 3.13C77.36 3.54 77.04 3.88 76.62 3.89L73.6 3.94H73.58L73.57 3.93ZM135.79 3.9L132.77 3.83C132.35 3.81 132.03 3.45 132.05 3.04C132.07 2.64 132.4 2.32 132.81 2.32L135.83 2.39C136.24 2.39 136.57 2.74 136.57 3.15C136.57 3.57 136.22 3.9 135.8 3.89L135.79 3.9ZM80.11 3.82C79.69 3.82 79.36 3.48 79.36 3.07C79.36 2.66 79.7 2.32 80.11 2.32L83.13 2.28C83.55 2.28 83.88 2.62 83.88 3.03C83.88 3.44 83.54 3.78 83.13 3.78L80.11 3.82ZM129.21 3.73L126.19 3.67C125.78 3.67 125.45 3.32 125.45 2.91C125.47 2.5 125.8 2.17 126.22 2.17L129.24 2.23C129.66 2.23 129.99 2.57 129.99 2.98C129.99 3.39 129.65 3.73 129.24 3.73H129.21ZM86.7 3.73C86.28 3.73 85.95 3.39 85.95 2.98C85.95 2.57 86.29 2.23 86.7 2.23L89.72 2.19C90.14 2.19 90.47 2.53 90.47 2.94C90.47 3.35 90.13 3.69 89.72 3.69L86.7 3.73ZM93.3 3.62C92.88 3.62 92.55 3.28 92.55 2.87C92.55 2.46 92.89 2.12 93.3 2.12H96.32C96.73 2.12 97.07 2.45 97.09 2.87C97.09 3.29 96.75 3.63 96.33 3.63C96.33 3.63 96.32 3.63 96.31 3.63H93.29H93.3V3.62ZM122.64 3.62L119.62 3.58C119.2 3.56 118.88 3.21 118.9 2.79C118.92 2.39 119.24 2.08 119.64 2.07L122.66 2.11C123.08 2.11 123.41 2.45 123.41 2.86C123.41 3.27 123.07 3.61 122.66 3.61H122.64V3.62ZM99.89 3.58C99.47 3.58 99.14 3.24 99.14 2.83C99.14 2.42 99.48 2.08 99.89 2.08H102.91C103.33 2.08 103.66 2.42 103.66 2.83C103.66 3.24 103.32 3.58 102.91 3.58H99.89ZM116.06 3.58H113.04C112.62 3.58 112.29 3.24 112.29 2.82C112.29 2.4 112.63 2.07 113.05 2.07H116.07C116.48 2.07 116.81 2.41 116.81 2.82C116.81 3.23 116.47 3.56 116.06 3.56V3.58ZM106.47 3.58C106.06 3.58 105.72 3.25 105.72 2.84C105.72 2.42 106.06 2.09 106.47 2.08H109.49C109.91 2.08 110.24 2.42 110.24 2.83C110.24 3.24 109.9 3.58 109.49 3.58H106.47Z" fill="white"/>
<path d="M148.81 26.36C148.56 26.36 148.36 26.56 148.36 26.81C148.46 27.53 147.96 28.2 147.23 28.31C146.83 28.37 146.44 28.24 146.14 27.97C145.85 27.67 145.7 27.26 145.72 26.84V20.27C145.72 20.02 145.5 19.82 145.25 19.83C145.05 19.83 144.89 19.97 144.83 20.15C144.34 22.01 142.68 27.06 140.88 28C140.51 28.22 140.05 28.22 139.67 28C139.46 27.89 139.31 27.69 139.27 27.46V22.33C139.27 21.26 139.02 19.83 136.86 19.83C135.75 19.97 134.72 20.48 133.93 21.28C133.87 20.42 133.13 19.76 132.26 19.82C132.21 19.82 132.16 19.82 132.12 19.84C130.96 19.98 130.06 20.93 130 22.1C129.15 27.16 127.38 28.4 126.46 28.32C125.86 28.22 125.45 27.67 125.53 27.06V10.76C125.54 10.51 125.35 10.3 125.1 10.29C124.85 10.28 124.64 10.47 124.63 10.72C124.63 10.73 124.63 10.75 124.63 10.76V21.02C124.59 21.24 124.3 22.79 123.25 23.02C122.73 23.13 121.93 22.3 121.59 21.86C121.12 20.58 119.89 19.75 118.53 19.8C117.4 19.8 115.27 20.72 115.27 24.19C115.27 24.54 115.27 24.89 115.32 25.24C115.14 26.12 114.44 28.26 113.18 28.26C112.68 28.26 112.37 27.61 111.91 26.53C111.38 25.28 110.7 23.64 109 23.09L111.6 20.56C111.78 20.38 111.78 20.09 111.6 19.92C111.42 19.74 111.13 19.74 110.96 19.92L106.95 23.83V10.77C106.94 10.52 106.73 10.33 106.48 10.34C106.25 10.35 106.06 10.54 106.05 10.77V21.19C105.84 21.64 104.8 23.95 103.56 26.46C103.1 27.4 102.63 27.93 102.14 28.08C101.49 28.29 100.73 27.85 99.84 27.34L99.71 27.27C98.96 26.89 98.07 26.86 97.3 27.19L102.31 20.73C102.46 20.56 102.46 20.3 102.31 20.13C102.16 19.96 101.9 19.93 101.71 20.06C101.25 20.33 100.74 20.52 100.21 20.6C99.78 20.61 99.36 20.5 99 20.29C98.43 19.96 97.78 19.8 97.12 19.82C96.06 19.93 94.83 21.21 93.29 23.79C93 23.33 92.63 22.93 92.2 22.61C91.45 21.89 90.9 20.99 90.61 20C90.56 19.84 90.42 19.72 90.25 19.69C90.08 19.66 89.91 19.73 89.81 19.86C89.81 19.89 88.07 22.19 86.28 24.69V24.2C86.28 20.23 83.87 19.81 82.83 19.81C81.79 19.81 79.58 20.73 79.58 24.2C79.58 24.53 79.58 24.86 79.62 25.18C78.81 26.22 77.9 27.18 76.9 28.03C76.47 28.36 75.85 28.29 75.52 27.86C75.43 27.75 75.37 27.62 75.34 27.48V22.32C75.34 21.25 75.09 19.82 72.93 19.82C71.82 19.96 70.79 20.47 70 21.27C69.94 20.41 69.2 19.75 68.33 19.81C68.28 19.81 68.23 19.81 68.18 19.83C67.13 19.83 66.67 20.56 66.18 21.33C65.85 21.84 64.88 23.14 64.32 23.85C64.04 23.43 63.69 23.06 63.28 22.76C62.53 22.04 61.99 21.14 61.69 20.15C61.64 19.99 61.5 19.87 61.33 19.84C61.16 19.81 60.99 19.88 60.89 20.01C60.89 20.01 58.39 23.35 56.29 26.36C55.34 27.75 54.21 28.54 53.24 28.44C52.64 28.37 52.12 28 51.85 27.46C53.44 26.36 54.74 24.89 55.64 23.18C56.24 22 56.14 20.94 55.37 20.33C54.19 19.62 52.69 19.78 51.69 20.73C50.04 22.12 49.91 24.99 50.72 27.16C50.26 27.45 49.82 27.69 49.4 27.9C48.19 28.5 48.04 28.42 47.34 27.97C47.12 27.82 46.85 27.64 46.49 27.45C45.66 27.09 44.72 27.09 43.89 27.45L49.16 20.53C49.31 20.36 49.31 20.1 49.16 19.93C49 19.76 48.75 19.74 48.56 19.87C47.98 20.29 47.3 20.56 46.59 20.67C46.21 20.62 45.85 20.49 45.53 20.29C45 19.93 44.36 19.76 43.72 19.81C42.75 19.94 42.42 20.74 41.83 22.22C41.6 22.78 41.32 23.48 40.93 24.3C39.8 26.74 38.19 28.26 36.74 28.26C35.53 28.26 33.9 28.26 33.9 24.48C33.9 22.76 34.34 20.71 36.4 20.71C37.18 20.71 37.88 21.17 38.21 21.87C38.34 22.09 38.61 22.16 38.83 22.04C39.05 21.92 39.12 21.64 39 21.42C38.52 20.44 37.51 19.81 36.42 19.81C35.11 19.78 33.93 20.59 33.47 21.82C33.41 21.81 33.35 21.81 33.3 21.82C31.66 21.8 30.09 21.15 28.92 20.01C28.76 19.85 28.5 19.84 28.32 19.98C28.14 20.15 28.12 20.43 28.28 20.61C29.09 21.76 29.51 23.14 29.48 24.54C29.48 26.95 27.89 28.32 26.78 28.32C25.57 28.32 24.86 27.5 24.86 26.08V20.3C24.87 20.05 24.68 19.84 24.43 19.83C24.18 19.82 23.97 20.01 23.96 20.26C23.96 20.27 23.96 20.29 23.96 20.3V26.06C23.84 27.3 22.83 28.26 21.58 28.3C20.48 28.3 19.77 27.49 19.77 26.19V20.54C19.77 20.37 19.68 20.22 19.53 20.14C19.39 20.06 19.21 20.06 19.07 20.14L15.77 22.29C15.56 22.44 15.51 22.74 15.66 22.95C15.81 23.16 16.11 23.21 16.32 23.06L18.92 21.36V26.19C18.75 27.68 19.82 29.02 21.31 29.19C21.41 29.2 21.52 29.21 21.62 29.21C22.72 29.17 23.73 28.62 24.36 27.72C24.81 28.67 25.78 29.25 26.83 29.21C28.57 29.21 30.45 27.33 30.45 24.53C30.45 23.63 30.3 22.73 30 21.88C30.98 22.45 32.09 22.75 33.23 22.74C33.1 23.34 33.04 23.94 33.05 24.55C33.05 28.68 34.95 29.23 36.79 29.23C38.63 29.23 40.49 27.55 41.8 24.74C42.19 23.9 42.48 23.19 42.72 22.62C43.26 21.29 43.47 20.81 43.89 20.77C44.32 20.77 44.74 20.91 45.1 21.16C45.54 21.44 46.05 21.61 46.58 21.65C46.82 21.65 47.06 21.61 47.29 21.54L41.97 28.48C41.83 28.66 41.85 28.92 42.01 29.08C42.17 29.25 42.43 29.27 42.61 29.13C43.21 28.69 45.02 27.68 46.1 28.25C46.37 28.39 46.63 28.55 46.88 28.72C47.83 29.32 48.27 29.48 49.84 28.72C50.29 28.49 50.73 28.25 51.14 28C51.57 28.77 52.33 29.28 53.2 29.39C54.53 29.52 55.92 28.64 57.13 26.91C58.66 24.71 60.39 22.36 61.22 21.24C61.55 22.11 62.1 22.89 62.81 23.5C63.49 24 63.96 24.74 64.11 25.57C64.21 26.28 64.02 27.01 63.57 27.57C62.87 28.41 61.74 28.76 60.68 28.46C59.95 28.33 59.38 27.75 59.26 27.02C59.24 26.77 59.02 26.58 58.77 26.6C58.52 26.62 58.33 26.84 58.35 27.09C58.35 27.09 58.35 27.11 58.35 27.12C58.5 28.23 59.33 29.12 60.43 29.34C60.76 29.43 61.1 29.47 61.44 29.47C62.55 29.5 63.6 28.99 64.28 28.11C64.87 27.35 65.12 26.38 64.99 25.43C64.95 25.2 64.89 24.97 64.82 24.75C65.25 24.19 66.58 22.48 66.99 21.82C67.48 21.05 67.7 20.74 68.2 20.74C68.7 20.74 69.12 20.79 69.12 21.86V28.93C69.11 29.18 69.3 29.39 69.55 29.4C69.8 29.41 70.01 29.22 70.02 28.97C70.02 28.96 70.02 28.94 70.02 28.93V22.51C70.56 21.91 71.83 20.74 72.91 20.74C74.06 20.74 74.42 21.13 74.42 22.33V27.51C74.48 28.16 74.88 28.72 75.48 28.98C75.74 29.12 76.03 29.19 76.32 29.19C76.73 29.19 77.13 29.05 77.46 28.8C78.33 28.09 79.12 27.29 79.82 26.42C80.24 28.23 81.29 29.19 82.95 29.19C84.47 29.27 85.8 28.18 86.02 26.67C87.54 24.5 89.24 22.19 90.06 21.09C90.4 21.97 90.96 22.76 91.68 23.37C92.37 23.86 92.83 24.6 92.99 25.43C93.09 26.14 92.9 26.87 92.45 27.43C91.75 28.27 90.62 28.62 89.56 28.32C88.83 28.18 88.26 27.6 88.15 26.87C88.13 26.62 87.91 26.43 87.66 26.45C87.41 26.47 87.22 26.69 87.24 26.94C87.24 26.94 87.24 26.96 87.24 26.97C87.39 28.08 88.24 28.98 89.35 29.19C89.68 29.28 90.02 29.32 90.36 29.32C91.47 29.35 92.52 28.84 93.2 27.96C93.79 27.2 94.05 26.23 93.91 25.28C93.88 25.12 93.85 24.95 93.8 24.8C95.76 21.38 96.82 20.78 97.26 20.73C97.75 20.73 98.24 20.86 98.66 21.11C99.17 21.41 99.77 21.55 100.36 21.51L100.61 21.46L95.18 28.46C95.04 28.64 95.06 28.9 95.23 29.06C95.31 29.14 95.42 29.18 95.54 29.18C95.65 29.18 95.76 29.14 95.84 29.07C95.84 29.07 97.94 27.26 99.32 28.06L99.44 28.13C100.47 28.73 101.44 29.26 102.46 28.94C103.38 28.55 104.09 27.79 104.43 26.86C105.07 25.56 105.64 24.32 106.11 23.35V28.92C106.1 29.17 106.29 29.38 106.54 29.39C106.79 29.4 107 29.21 107.01 28.96C107.01 28.95 107.01 28.93 107.01 28.92V25.12L108.28 23.91C109.93 24.13 110.54 25.56 111.14 26.93C111.64 28.14 112.11 29.21 113.24 29.21C114.5 29.21 115.29 28.09 115.74 27.07C116.11 28.37 117.33 29.25 118.68 29.19C120.91 29.19 122.04 27.52 122.04 24.23C122.04 23.99 122.04 23.75 122.01 23.52C122.36 23.79 122.78 23.95 123.22 23.98C123.32 23.99 123.42 23.99 123.52 23.98C123.99 23.88 124.41 23.63 124.73 23.26V27.11C124.65 28.19 125.43 29.14 126.5 29.27C128.09 29.41 130.12 27.63 131.02 22.28C131.17 21.42 131.7 20.77 132.23 20.77C132.76 20.77 133.15 20.82 133.15 21.89V28.92C133.16 29.17 133.37 29.36 133.62 29.35C133.85 29.34 134.04 29.15 134.05 28.92V22.5C134.59 21.9 135.86 20.73 136.93 20.73C138.08 20.73 138.44 21.12 138.44 22.32V27.5C138.48 28.05 138.79 28.55 139.27 28.82C139.92 29.2 140.73 29.2 141.38 28.82C142.87 28.03 144.11 25.33 144.89 23.19V26.85C144.78 28.08 145.69 29.16 146.91 29.27C148.14 29.38 149.22 28.47 149.33 27.25C149.34 27.12 149.34 26.98 149.33 26.85C149.35 26.6 149.17 26.39 148.92 26.37C148.9 26.37 148.88 26.37 148.86 26.37H148.85L148.81 26.36ZM51.46 26.61C50.86 24.8 50.98 22.49 52.25 21.41C52.71 21.01 53.29 20.78 53.9 20.76C54.21 20.75 54.52 20.84 54.78 21.02C55.34 21.47 55.04 22.29 54.78 22.75C53.99 24.28 52.85 25.6 51.45 26.6L51.46 26.61ZM82.94 28.26C81.89 28.26 80.53 27.84 80.53 24.2C80.53 21.45 82.01 20.71 82.88 20.71C84.55 20.71 85.42 21.92 85.42 24.2C85.44 24.9 85.36 25.61 85.2 26.29C85.18 26.33 85.17 26.37 85.17 26.42C85.01 27.51 84.04 28.3 82.94 28.25V28.26ZM118.61 28.26C117.56 28.26 116.17 27.84 116.17 24.2C116.17 21.45 117.65 20.71 118.52 20.71C120.18 20.71 121.06 21.92 121.06 24.2C121.06 27.83 119.66 28.26 118.61 28.26Z" fill="#202020"/>
<path d="M172.46 26.4C172.21 26.4 172.01 26.6 172.01 26.85C172.03 27.21 171.9 27.56 171.65 27.82C171.16 28.27 170.39 28.24 169.94 27.75C169.71 27.5 169.59 27.15 169.63 26.81V21.12V10.94C169.64 10.69 169.45 10.48 169.2 10.47C168.95 10.46 168.74 10.65 168.73 10.9C168.73 10.91 168.73 10.93 168.73 10.94V21.02C168.57 21.39 167.84 23.06 166.32 26.05C165.22 28.25 164.03 28.16 163.7 28.08C163.3 28.01 163 27.69 162.96 27.29V22.86C162.96 20.74 161.88 19.38 160.21 19.38C159.21 19.37 158.26 19.79 157.6 20.54V19.76C157.6 19.59 157.5 19.43 157.35 19.35C157.19 19.28 157.01 19.3 156.87 19.4L153.96 21.65C153.77 21.82 153.75 22.1 153.92 22.29C154.07 22.46 154.32 22.49 154.51 22.37L156.7 20.69V34.27C156.69 34.52 156.88 34.73 157.13 34.74C157.38 34.75 157.59 34.56 157.6 34.31C157.6 34.3 157.6 34.28 157.6 34.27V22.2C158.01 21.1 159.04 20.35 160.21 20.29C161.57 20.29 162.06 21.62 162.06 22.87V27.3C162.11 28.13 162.71 28.81 163.52 28.97C163.68 29.01 163.84 29.02 164 29.02C164.76 29.02 166.07 28.65 167.16 26.46C167.84 25.1 168.37 24.05 168.74 23.21V26.83C168.69 28 169.6 28.99 170.77 29.04C170.8 29.04 170.84 29.04 170.87 29.04C171.39 29.04 171.9 28.85 172.28 28.49C172.71 28.06 172.94 27.47 172.91 26.87C172.91 26.62 172.72 26.41 172.46 26.4Z" fill="#202020"/>
<path d="M151.64 29.04C152.027 29.04 152.34 28.7266 152.34 28.34C152.34 27.9534 152.027 27.64 151.64 27.64C151.253 27.64 150.94 27.9534 150.94 28.34C150.94 28.7266 151.253 29.04 151.64 29.04Z" fill="#202020"/>
<path d="M145.21 16.9C145.6 16.9 145.91 16.59 145.91 16.2C145.91 15.81 145.6 15.5 145.21 15.5C144.82 15.5 144.51 15.81 144.51 16.2C144.51 16.59 144.82 16.9 145.21 16.9Z" fill="#202020"/>
</g>
<defs>
<clipPath id="clip0_3054_171">
<rect width="189.74" height="45.94" fill="white"/>
</clipPath>
</defs>
</svg>
