<svg width="220" height="206" viewBox="0 0 220 206" fill="none" xmlns="http://www.w3.org/2000/svg">
<g clip-path="url(#clip0_3078_935)">
<mask id="mask0_3078_935" style="mask-type:luminance" maskUnits="userSpaceOnUse" x="0" y="0" width="220" height="206">
<path d="M220 0H0V206H220V0Z" fill="white"/>
</mask>
<g mask="url(#mask0_3078_935)">
<mask id="mask1_3078_935" style="mask-type:luminance" maskUnits="userSpaceOnUse" x="18" y="4" width="201" height="200">
<path d="M218.38 4.32999H18.22V203.34H218.38V4.32999Z" fill="white"/>
</mask>
<g mask="url(#mask1_3078_935)">
<path d="M33.98 162.01C39.13 175.94 47.91 176.04 47.91 176.04C47.91 176.04 73.31 163.32 68.16 149.38C63.01 135.44 51.19 126.97 41.75 130.46C32.31 133.95 28.83 148.07 33.98 162.01Z" fill="#3A9682"/>
<path d="M164.47 128.18C173.65 127.67 187.96 130.27 196.72 134.5C201.4 136.76 196.98 151.4 192.32 156.36C187.66 161.32 173.25 164.68 166.51 165.05C152.42 165.83 140.54 158.21 139.97 148.03C139.4 137.85 150.37 128.96 164.46 128.18" fill="#2C7B67"/>
<path d="M39.35 85.36C39.32 85.01 39.3 84.66 39.27 84.31H39.51C42.41 68.5 71.73 56.08 107.47 56.08C143.21 56.08 172.54 68.5 175.43 84.31H175.67C175.64 84.66 175.61 85.01 175.59 85.36C175.64 85.87 175.67 86.37 175.67 86.88C175.67 88.06 175.52 89.24 175.23 90.39C174.01 109.03 173.56 130.06 164.6 149.53C143.79 194.76 114.49 196.59 107.47 196.34C100.46 196.59 71.15 194.76 50.34 149.53C41.38 130.06 40.93 109.03 39.71 90.39C39.42 89.24 39.27 88.07 39.27 86.88C39.27 86.37 39.3 85.86 39.35 85.36Z" fill="#81C4B8"/>
<path d="M68.72 66.79C89.2 66.79 105.97 82.06 107.47 101.43C108.97 82.06 125.74 66.79 146.22 66.79C166.7 66.79 185.09 83.57 185.09 104.26C185.09 124.95 167.69 141.73 146.22 141.73C124.75 141.73 108.97 126.46 107.47 107.09C106.17 123.86 93.43 137.55 76.75 140.93C74.11 141.46 71.42 141.73 68.72 141.73C47.25 141.73 29.85 124.95 29.85 104.26C29.85 83.57 47.25 66.79 68.72 66.79Z" fill="#5CB5A6"/>
<path d="M88.38 161.4C90.71 161.36 92.94 160.42 94.59 158.77C95.14 158.25 95.82 159.19 95.38 159.85C93.24 163.72 88.37 165.12 84.51 162.98C83.19 162.25 82.11 161.17 81.38 159.85C80.94 159.19 81.62 158.24 82.17 158.77C83.82 160.42 86.05 161.36 88.38 161.4Z" fill="#A6D6D2"/>
<path d="M126.56 161.4C128.89 161.36 131.12 160.42 132.77 158.77C133.32 158.25 134 159.19 133.56 159.85C131.42 163.72 126.55 165.12 122.69 162.98C121.37 162.25 120.29 161.17 119.56 159.85C119.12 159.19 119.8 158.24 120.35 158.77C122 160.42 124.23 161.36 126.56 161.4Z" fill="#A6D6D2"/>
<path d="M107.47 161.4C109.8 161.36 112.03 160.42 113.68 158.77C114.23 158.25 114.91 159.19 114.47 159.85C112.33 163.72 107.46 165.12 103.6 162.98C102.28 162.25 101.2 161.17 100.47 159.85C100.03 159.19 100.71 158.24 101.26 158.77C102.91 160.42 105.14 161.36 107.47 161.4Z" fill="#A6D6D2"/>
<path d="M98.19 174.02C100.52 173.98 102.75 173.04 104.4 171.39C104.95 170.87 105.63 171.81 105.19 172.47C103.05 176.34 98.18 177.74 94.32 175.6C93 174.87 91.92 173.79 91.19 172.47C90.75 171.81 91.43 170.86 91.98 171.39C93.63 173.04 95.86 173.98 98.19 174.02Z" fill="#A6D6D2"/>
<path d="M117.28 174.02C119.61 173.98 121.84 173.04 123.49 171.39C124.04 170.87 124.72 171.81 124.28 172.47C122.14 176.34 117.27 177.74 113.41 175.6C112.09 174.87 111.01 173.79 110.28 172.47C109.84 171.81 110.52 170.86 111.07 171.39C112.72 173.04 114.95 173.98 117.28 174.02Z" fill="#A6D6D2"/>
<path d="M128.04 195.51C128.04 197.33 129.05 199.97 129.99 202.03C130.79 203.79 132.3 203.79 133.1 202.03C134.04 199.97 135.05 197.33 135.05 195.51C135.05 192.13 133.48 189.38 131.54 189.38C129.6 189.38 128.03 192.12 128.03 195.51" fill="#F37F00"/>
<path d="M120.37 195.51C120.37 197.33 121.38 199.97 122.32 202.03C123.12 203.79 124.63 203.79 125.43 202.03C126.37 199.97 127.38 197.33 127.38 195.51C127.38 192.13 125.81 189.38 123.87 189.38C121.93 189.38 120.36 192.12 120.36 195.51" fill="#F37F00"/>
<path d="M112.7 195.51C112.7 197.33 113.71 199.97 114.65 202.03C115.45 203.79 116.96 203.79 117.76 202.03C118.7 199.97 119.71 197.33 119.71 195.51C119.71 192.13 118.14 189.38 116.2 189.38C114.26 189.38 112.69 192.12 112.69 195.51" fill="#F37F00"/>
<path d="M95.23 195.51C95.23 197.33 96.24 199.97 97.18 202.03C97.98 203.79 99.49 203.79 100.29 202.03C101.23 199.97 102.24 197.33 102.24 195.51C102.24 192.13 100.67 189.38 98.73 189.38C96.79 189.38 95.22 192.12 95.22 195.51" fill="#F37F00"/>
<path d="M87.56 195.51C87.56 197.33 88.57 199.97 89.51 202.03C90.31 203.79 91.82 203.79 92.62 202.03C93.56 199.97 94.57 197.33 94.57 195.51C94.57 192.13 93 189.38 91.06 189.38C89.12 189.38 87.55 192.12 87.55 195.51" fill="#F37F00"/>
<path d="M79.89 195.51C79.89 197.33 80.9 199.97 81.84 202.03C82.64 203.79 84.15 203.79 84.95 202.03C85.89 199.97 86.9 197.33 86.9 195.51C86.9 192.13 85.33 189.38 83.39 189.38C81.45 189.38 79.88 192.12 79.88 195.51" fill="#F37F00"/>
<path d="M34.67 49.96C34.67 49.96 38.43 50.43 39.88 43.23C39.88 43.23 45.44 52.28 60.12 54.67C74.47 57.01 102.01 55.31 102.01 55.31L112.94 55.32C112.94 55.32 140.48 57.01 154.83 54.67C169.51 52.28 175.07 43.23 175.07 43.23C176.52 50.43 180.28 49.96 180.28 49.96C185.51 48.37 196.72 36.84 196.72 36.84C191.11 53.71 179.9 67.76 145.87 81.19C133.02 86.26 120.67 92.52 108.99 99.9L107.48 100.89L105.97 99.9C94.29 92.52 81.94 86.26 69.09 81.19C35.06 67.76 23.85 53.71 18.24 36.84C18.24 36.84 29.45 48.37 34.68 49.96" fill="#3A9682"/>
<path d="M88.38 70.69C90.71 70.65 92.94 69.71 94.59 68.06C95.14 67.54 95.82 68.48 95.38 69.14C93.24 73.01 88.37 74.41 84.51 72.27C83.19 71.54 82.11 70.46 81.38 69.14C80.94 68.48 81.62 67.53 82.17 68.06C83.82 69.71 86.05 70.65 88.38 70.69Z" fill="#367D6B"/>
<path d="M126.56 70.69C128.89 70.65 131.12 69.71 132.77 68.06C133.32 67.54 134 68.48 133.56 69.14C131.42 73.01 126.55 74.41 122.69 72.27C121.37 71.54 120.29 70.46 119.56 69.14C119.12 68.48 119.8 67.53 120.35 68.06C122 69.71 124.23 70.65 126.56 70.69Z" fill="#367D6B"/>
<path d="M107.47 70.69C109.8 70.65 112.03 69.71 113.68 68.06C114.23 67.54 114.91 68.48 114.47 69.14C112.33 73.01 107.46 74.41 103.6 72.27C102.28 71.54 101.2 70.46 100.47 69.14C100.03 68.48 100.71 67.53 101.26 68.06C102.91 69.71 105.14 70.65 107.47 70.69Z" fill="#367D6B"/>
<path d="M98.19 83.3C100.52 83.26 102.75 82.32 104.4 80.67C104.95 80.15 105.63 81.09 105.19 81.75C103.05 85.62 98.18 87.02 94.32 84.88C93 84.15 91.92 83.07 91.19 81.75C90.75 81.09 91.43 80.14 91.98 80.67C93.63 82.32 95.86 83.26 98.19 83.3Z" fill="#367D6B"/>
<path d="M117.28 83.3C119.61 83.26 121.84 82.32 123.49 80.67C124.04 80.15 124.72 81.09 124.28 81.75C122.14 85.62 117.27 87.02 113.41 84.88C112.09 84.15 111.01 83.07 110.28 81.75C109.84 81.09 110.52 80.14 111.07 80.67C112.72 82.32 114.95 83.26 117.28 83.3Z" fill="#367D6B"/>
<path d="M107.47 94.22C109.8 94.18 112.03 93.24 113.68 91.59C114.23 91.07 114.91 92.01 114.47 92.67C112.33 96.54 107.46 97.94 103.6 95.8C102.28 95.07 101.2 93.99 100.47 92.67C100.03 92.01 100.71 91.06 101.26 91.59C102.91 93.24 105.14 94.18 107.47 94.22Z" fill="#367D6B"/>
<path d="M117.94 119.43C118.01 119.55 118.07 119.67 118.13 119.78C118.53 120.65 118.59 121.64 118.3 122.55L108.55 152.01C108.06 153.49 106.89 153.49 106.4 152.01L96.65 122.55C96.36 121.64 96.42 120.65 96.82 119.78C96.88 119.67 96.94 119.55 97.01 119.43C102.76 108.85 112.19 108.85 117.94 119.43Z" fill="#F37F00"/>
<path d="M99.54 20.38L99.14 19.08C101.91 18.8 104.67 19.69 106.76 21.53C108.94 23.64 109.1 26.08 109.1 29.12L108.74 29.09C108.74 27.78 108.55 26.48 108.18 25.22C107.42 22.81 105.39 21.03 102.9 20.58C101.86 20.35 100.79 20.27 99.73 20.36C99.59 20.36 99.41 20.41 99.54 20.38Z" fill="#0E2865"/>
<path d="M56.23 57.3L115.59 4.32999L164.05 60.94L56.23 57.3Z" fill="#C9E1E8"/>
<path d="M120.89 10.52L69.25 57.74L70.27 57.77L121.35 11.06L120.89 10.52Z" fill="#85C9DF"/>
<path d="M119.28 8.64999L65.73 57.63L66.75 57.66L119.75 9.19999L119.29 8.64999H119.28Z" fill="#85C9DF"/>
<path d="M117.97 7.10999L62.84 57.52L63.86 57.55L118.43 7.64999L117.97 7.10999Z" fill="#85C9DF"/>
<path d="M116.55 5.45999L59.73 57.42L60.75 57.45L117.01 5.99999L116.55 5.45999Z" fill="#85C9DF"/>
<path d="M79.41 58.08L80.43 58.11L104.24 36.34L103.68 35.89L79.42 58.08H79.41Z" fill="#85C9DF"/>
<path d="M125.98 16.47L125.52 15.93L119.95 21.02L120.5 21.48L125.98 16.47Z" fill="#85C9DF"/>
<path d="M82.51 58.19L83.53 58.22L105.95 37.72L105.39 37.27L82.52 58.19H82.51Z" fill="#85C9DF"/>
<path d="M127.39 18.12L126.93 17.58L121.63 22.43L122.18 22.89L127.4 18.12H127.39Z" fill="#85C9DF"/>
<path d="M85.61 58.29L86.63 58.32L107.65 39.1L107.09 38.64L85.62 58.28L85.61 58.29Z" fill="#85C9DF"/>
<path d="M128.8 19.77L128.34 19.23L123.3 23.84L123.85 24.3L128.8 19.77Z" fill="#85C9DF"/>
<path d="M130.21 21.41L129.75 20.87L124.97 25.24L125.52 25.7L130.21 21.41Z" fill="#85C9DF"/>
<path d="M88.71 58.4L89.73 58.43L109.36 40.48L108.8 40.03L88.72 58.4H88.71Z" fill="#85C9DF"/>
<path d="M91.81 58.5L92.83 58.53L111.06 41.86L110.5 41.41L91.81 58.5Z" fill="#85C9DF"/>
<path d="M131.62 23.06L131.16 22.52L126.64 26.65L127.19 27.11L131.62 23.06Z" fill="#85C9DF"/>
<path d="M94.91 58.61L95.93 58.64L112.77 43.24L112.21 42.79L94.91 58.61Z" fill="#85C9DF"/>
<path d="M133.03 24.71L132.57 24.17L128.32 28.06L128.87 28.52L133.03 24.71Z" fill="#85C9DF"/>
<path d="M134.44 26.36L133.98 25.82L129.99 29.47L130.54 29.93L134.44 26.36Z" fill="#85C9DF"/>
<path d="M98.01 58.71L99.03 58.74L114.48 44.62L113.92 44.17L98.01 58.71Z" fill="#85C9DF"/>
<path d="M101.1 58.82L102.12 58.85L116.17 46L115.61 45.55L101.1 58.82Z" fill="#85C9DF"/>
<path d="M135.85 28.01L135.39 27.47L131.67 30.88L132.22 31.34L135.86 28.01H135.85Z" fill="#85C9DF"/>
<path d="M104.2 58.92L105.22 58.95L117.88 47.37L117.32 46.92L104.2 58.92Z" fill="#85C9DF"/>
<path d="M137.26 29.65L136.8 29.11L133.34 32.28L133.89 32.74L137.27 29.65H137.26Z" fill="#85C9DF"/>
<path d="M107.3 59.03L108.32 59.06L119.59 48.76L119.03 48.31L107.31 59.03H107.3Z" fill="#85C9DF"/>
<path d="M138.67 31.3L138.21 30.76L135.01 33.68L135.56 34.14L138.67 31.29V31.3Z" fill="#85C9DF"/>
<path d="M110.4 59.13L111.42 59.16L121.3 50.13L120.74 49.68L110.41 59.13H110.4Z" fill="#85C9DF"/>
<path d="M140.09 32.95L139.63 32.41L136.69 35.09L137.24 35.55L140.09 32.95Z" fill="#85C9DF"/>
<path d="M113.5 59.23L114.52 59.26L123 51.5L122.44 51.05L113.5 59.22V59.23Z" fill="#85C9DF"/>
<path d="M141.5 34.6L141.04 34.06L138.37 36.5L138.92 36.96L141.51 34.6H141.5Z" fill="#85C9DF"/>
<path d="M124.7 52.89L124.14 52.44L116.59 59.34L117.61 59.37L124.92 52.68L124.7 52.88V52.89Z" fill="#85C9DF"/>
<path d="M142.91 36.24L142.45 35.7L140.04 37.9L140.59 38.36L142.91 36.24Z" fill="#85C9DF"/>
<path d="M143.85 37.35L119.7 59.44L120.72 59.48L144.32 37.9L143.86 37.36L143.85 37.35Z" fill="#85C9DF"/>
<path d="M145.27 39L122.8 59.55L123.82 59.58L145.73 39.54L145.27 39Z" fill="#85C9DF"/>
<path d="M146.68 40.65L125.9 59.65L126.92 59.68L147.14 41.18L146.68 40.65Z" fill="#85C9DF"/>
<path d="M148.09 42.3L129 59.76L130.02 59.79L148.55 42.84L148.09 42.3Z" fill="#85C9DF"/>
<path d="M149.5 43.95L132.1 59.86L133.12 59.89L149.97 44.48L149.5 43.94V43.95Z" fill="#85C9DF"/>
<path d="M150.91 45.6L135.2 59.97L136.22 60L151.38 46.14L150.91 45.6Z" fill="#85C9DF"/>
<path d="M152.32 47.25L138.29 60.08L139.31 60.12L152.78 47.8L152.32 47.26V47.25Z" fill="#85C9DF"/>
<path d="M153.73 48.89L141.39 60.17L142.41 60.2L154.19 49.42L153.73 48.88V48.89Z" fill="#85C9DF"/>
<path d="M155.14 50.54L144.49 60.28L145.51 60.31L155.61 51.08L155.14 50.54Z" fill="#85C9DF"/>
<path d="M156.55 52.19L147.58 60.39L148.6 60.42L157.01 52.73L156.55 52.18V52.19Z" fill="#85C9DF"/>
<path d="M157.96 53.84L150.68 60.49L151.7 60.53L158.42 54.39L157.96 53.85V53.84Z" fill="#85C9DF"/>
<path d="M159.37 55.49L153.78 60.6L154.8 60.63L159.83 56.03L159.37 55.49Z" fill="#85C9DF"/>
<path d="M160.79 57.13L156.89 60.7L157.91 60.73L161.26 57.67L160.8 57.13H160.79Z" fill="#85C9DF"/>
<path d="M162.2 58.78L159.99 60.8L161.01 60.83L162.67 59.32L162.21 58.78H162.2Z" fill="#85C9DF"/>
<path d="M124.1 14.28L123.64 13.74L117.72 19.15L118.27 19.61L124.1 14.28Z" fill="#85C9DF"/>
<path d="M99.71 37.15L99.25 36.61L93.33 42.02L93.88 42.48L99.71 37.15Z" fill="#85C9DF"/>
<path d="M122.43 12.32L72.64 57.85L73.66 57.88L122.89 12.87L122.43 12.33V12.32Z" fill="#85C9DF"/>
<path d="M105.77 33.93L117.8 22.93L136.27 38.47L124.59 49.15L105.77 33.93Z" fill="#85C9DF"/>
<path d="M76.64 45.74L111.54 12.54L75.16 46.2L76.64 45.74Z" fill="#C9E1E8"/>
<path d="M56.23 57.3L67.47 44.62L164.05 60.94L56.23 57.3Z" fill="#ECEBEB"/>
<path d="M84.39 167.77C82.6 167.69 77.38 165.28 75.62 165.18C73.86 165.08 76.34 168.01 83.02 170.42" fill="#F18C6E"/>
<path d="M25.98 164.98C26.71 166.77 28.37 168.79 31.22 170.94C48.42 183.86 82.22 187.93 89 177.43C89.97 175.93 91.14 172.96 90.88 170.85C90.88 170.84 90.88 170.83 90.88 170.82C90.88 170.48 90.85 170.14 90.81 169.8C89.47 159.02 65.4 149.49 50.09 149.07C47.4 149 45.68 149.71 45.15 150.8C44.35 151.69 44.09 152.94 44.47 154.08C44.96 155.09 47.71 156.88 48.36 158.34C46.67 159.91 43 159.02 41.34 158.32C35.46 155.81 29.19 155.56 26.97 158.33H26.96C25.37 159.71 25.04 162.65 25.99 164.99M35.56 165.6C37.54 161.65 49.45 165.06 48.41 169.14C45.21 169.85 37.83 168 35.56 165.6Z" fill="#BF905E"/>
<path d="M31.91 168.72C51.57 183.49 92.91 186.7 90.81 169.79C89.47 159.01 65.4 149.48 50.09 149.06C44.71 148.92 43.25 151.89 47.28 154.76C51.31 157.63 46.73 159.68 41.27 157.36C30.56 152.79 18.77 158.84 31.91 168.72ZM35.49 162.67C37.14 159.2 49.96 162.92 49.71 166.94C49.41 171.6 33.25 167.41 35.49 162.67Z" fill="#FFDB9D"/>
<mask id="mask2_3078_935" style="mask-type:luminance" maskUnits="userSpaceOnUse" x="66" y="156" width="12" height="6">
<path d="M77.28 156.3H66.35V161.98H77.28V156.3Z" fill="white"/>
</mask>
<g mask="url(#mask2_3078_935)">
<path d="M76.21 159.18C78.54 160.38 76.63 162.91 74.31 161.63C72.43 162.62 68.46 160.42 67.72 159.93C65.18 158.22 66.51 155.81 68.9 156.38C71.59 157.03 73.11 154.61 76.21 159.18Z" fill="#624691"/>
</g>
<mask id="mask3_3078_935" style="mask-type:luminance" maskUnits="userSpaceOnUse" x="75" y="165" width="11" height="8">
<path d="M85.79 165.71H75.16V172.22H85.79V165.71Z" fill="white"/>
</mask>
<g mask="url(#mask3_3078_935)">
<path d="M75.25 167.27C76.11 163.45 88.71 167.37 85.15 171.29C84.57 172.79 79.77 172.3 78.73 171.17C75.79 170.68 74.83 169.13 75.25 167.27Z" fill="#EA5E0E"/>
</g>
<mask id="mask4_3078_935" style="mask-type:luminance" maskUnits="userSpaceOnUse" x="65" y="171" width="13" height="8">
<path d="M77.27 171.12H65.98V178.17H77.27V171.12Z" fill="white"/>
</mask>
<g mask="url(#mask4_3078_935)">
<path d="M66.9499 172.76C66.6999 170.73 71.53 170.55 72.51 172.38C74.42 171.23 78.93 174.37 76.66 176.25C76.55 178.19 73.84 178.62 69.5 177.68C65.09 176.72 65.59 174.42 66.96 172.76" fill="#65A51C"/>
</g>
<path d="M57.51 172.88C57.2 168.98 52.85 169.27 51.32 170.42C50.18 171.28 47.41 170.21 47.92 172.54C48.43 174.87 57.99 178.86 57.51 172.88Z" fill="#3B8ECF"/>
<path d="M61.66 169.67C60.29 168.43 56.98 169.53 59.18 171.27C61.38 173.01 63.75 171.56 61.66 169.67Z" fill="#3B8ECF"/>
<mask id="mask5_3078_935" style="mask-type:luminance" maskUnits="userSpaceOnUse" x="52" y="151" width="11" height="7">
<path d="M62.13 151.29H52.35V157.78H62.13V151.29Z" fill="white"/>
</mask>
<g mask="url(#mask5_3078_935)">
<path d="M52.79 153.27C54.53 149.76 58.44 151.65 59.43 153.28C60.17 154.5 63.12 154.54 61.79 156.51C60.46 158.48 50.12 158.64 52.79 153.26" fill="#D6227C"/>
</g>
<path d="M66.16 120.04C72.43 121.88 78.32 124.82 83.57 128.71C92.73 123.74 98.46 114.18 98.53 103.76C98.53 87.85 85.15 74.96 68.65 74.96C52.15 74.96 38.77 87.86 38.77 103.76C38.77 108.54 40 113.24 42.34 117.41C48.44 116.38 57.14 117.2 66.17 120.04" fill="#181616"/>
<path d="M65.38 117.25C73.07 119.67 79.5 123.08 83.64 126.63C91.61 122.02 96.55 113.53 96.61 104.32C96.61 89.85 84.44 78.11 69.42 78.11C54.4 78.11 42.23 89.85 42.23 104.32C42.23 107.75 42.93 111.14 44.28 114.3C51.43 113.99 58.58 115 65.38 117.26" fill="white"/>
<path d="M53.42 81.96C53.42 81.96 48.28 79.28 48.43 74.38C47.03 77.26 47.4 80.68 49.38 83.19C51.4 85.98 53.42 81.95 53.42 81.95" fill="#181616"/>
<path d="M49.08 83.8C49.08 83.8 43.94 81.12 44.09 76.22C42.67 79.09 43.04 82.53 45.04 85.03C48.42 89.63 49.08 83.79 49.08 83.79" fill="#181616"/>
<path d="M87.69 97.63C85.78 99.31 83.32 100.24 80.77 100.23C80.27 100.23 79.77 100.19 79.27 100.11C78.71 104.24 74.9 107.14 70.76 106.57C67.13 106.07 64.37 103.04 64.23 99.37C64.29 95.7 67.05 92.63 70.69 92.19C70.16 89.56 70.77 86.84 72.35 84.68C71.15 84.46 69.93 84.35 68.71 84.35C57.69 84.35 48.76 92.96 48.76 103.58C48.77 108.56 50.76 113.32 54.28 116.83C57.79 117.35 61.26 118.11 64.67 119.09C66.05 119.55 69.38 120.99 72.63 122.43C81.8 120.8 88.53 112.89 88.66 103.57C88.66 101.54 88.32 99.53 87.67 97.61" fill="#181616"/>
<path d="M148.44 120.04C142.17 121.88 136.28 124.82 131.03 128.71C121.87 123.74 116.14 114.18 116.07 103.76C116.07 87.85 129.45 74.96 145.95 74.96C162.45 74.96 175.83 87.86 175.83 103.76C175.83 108.54 174.6 113.24 172.26 117.41C166.16 116.38 157.46 117.2 148.43 120.04" fill="#181616"/>
<path d="M149.22 117.25C141.53 119.67 135.1 123.08 130.96 126.63C122.99 122.02 118.05 113.53 117.99 104.32C117.99 89.85 130.17 78.11 145.18 78.11C160.19 78.11 172.37 89.85 172.37 104.32C172.37 107.75 171.67 111.14 170.32 114.3C163.17 113.99 156.02 115 149.22 117.26" fill="white"/>
<path d="M162.16 82.24C162.16 82.24 167.47 79.91 167.64 75.01C168.89 77.97 168.29 81.38 166.12 83.74C163.63 86.64 162.17 82.24 162.17 82.24" fill="#181616"/>
<path d="M166.38 84.36C166.38 84.36 171.69 82.03 171.86 77.13C173.08 80.09 172.49 83.49 170.34 85.86C166.66 90.23 166.39 84.36 166.39 84.36" fill="#181616"/>
<path d="M160.24 116.32C162.96 112.76 164.43 108.41 164.42 103.93C164.42 102.71 164.3 101.49 164.08 100.29C161.92 101.88 159.2 102.48 156.57 101.95C156.12 105.93 152.53 108.78 148.55 108.33C144.79 107.9 141.99 104.65 142.13 100.87C142.07 97.07 144.89 93.83 148.66 93.37C148.59 92.87 148.55 92.37 148.54 91.87C148.54 89.32 149.46 86.86 151.14 84.95C149.22 84.3 147.21 83.96 145.18 83.96C134.56 83.96 125.95 92.89 125.95 103.91C125.85 112.75 131.61 120.58 140.07 123.13C146.33 119.66 153.16 117.35 160.24 116.31" fill="#181616"/>
<path d="M36.93 164.35C38.82 163.03 43.7 160.13 43.7 160.13C43.7 160.13 46.38 164.57 47.7 166.88C48.76 168.72 44.21 167.98 41.44 167.36C38.67 166.74 35.19 165.56 36.93 164.35Z" fill="#3A9682"/>
<path d="M188.21 168.97C188.21 168.97 202 126.72 205 117.15C205.39 115.94 204.85 114.62 203.71 114.04C202.72 113.61 201.56 114.07 201.14 115.06C201.1 115.16 201.06 115.27 201.03 115.38C198.04 124.93 188.3 153.97 184.28 167.07C183.9 168.28 184.45 169.59 185.58 170.17C186.57 170.59 187.71 170.14 188.13 169.15C188.15 169.09 188.18 169.03 188.2 168.98" fill="#641315"/>
<path d="M203.62 121.52C204.77 118.21 206.58 111.39 207.83 107.14C207.98 106.22 207.52 105.31 206.7 104.87C205.65 104.26 204.45 105.31 204.29 105.86C202.95 110.14 201.4 113.38 199.46 119.95C198.77 122.29 203.07 123.1 203.61 121.53" fill="#AEADAD"/>
<path d="M201.53 98.49C202.36 95.96 204.04 93.8 206.28 92.38C208.35 90.9 210.62 89.76 212.52 88.02C214.61 86.23 215.81 83.63 215.83 80.88C217.68 86.12 219.3 91.93 217.8 97.16C216.58 101.41 213.51 104.5 210.57 107.39C208.47 109.45 205.5 111.53 203.31 108.26C201.54 105.33 200.91 101.86 201.54 98.5" fill="#DC9D76"/>
<path d="M212.8 113.34C212.95 115.3 214.68 115.26 214.83 113.74C214.89 113.17 214.34 111.48 214.33 109.31C213.38 110.44 212.84 111.86 212.8 113.34Z" fill="#624691"/>
<path d="M212.98 100.75C213.33 100.56 213.88 100.74 213.9 101.13C213.9 102.23 214.54 103.24 215.54 103.71C215.71 102.17 217.16 99.35 217.8 97.15C219.3 91.92 217.68 86.11 215.83 80.87C215.82 83.62 214.61 86.22 212.52 88.01C210.62 89.76 207.98 90.7 205.92 92.18C204.57 93.28 203.44 94.61 202.58 96.12C203.01 96.1 203.42 95.89 203.68 95.54C204.22 94.75 205.2 94.39 206.12 94.63C206.41 94.75 206.71 94.84 207.02 94.89C207.75 94.94 208.31 94.28 208.77 93.7C209.23 93.12 209.89 92.52 210.59 92.71C209.35 94.95 208.56 97.42 208.27 99.97C208.2 100.55 209 100.91 209.54 100.68C210.05 100.39 210.45 99.94 210.7 99.41C210.95 98.87 211.41 98.46 211.96 98.27C211.77 99.42 211.89 100.6 212.3 101.7C212.41 101.31 212.65 100.98 212.98 100.74" fill="#624691"/>
<path d="M186.47 135.27C186.47 135.27 197.21 132.62 200.51 136.78C204.08 141.29 197.77 151.99 192.32 156.37C187.57 146.62 186.47 135.27 186.47 135.27Z" fill="#3A9682"/>
<path d="M48.64 141.45C34.41 136.93 25.1 126.06 21.72 110.03C20.19 102.57 19.92 94.91 20.92 87.37L21.4 84.39L111.62 103.9L111.09 106.73C110.92 107.6 106.88 128.17 90.02 138.75C83.46 142.8 75.88 144.89 68.18 144.76C61.54 144.66 54.95 143.54 48.65 141.44M26.08 91.36C25.32 100.59 25.3 127.94 50.26 135.87C65 140.55 77.39 139.85 87.1 133.78C98.41 126.71 103.24 114.01 104.9 108.4L26.08 91.36Z" fill="#4C4C4B"/>
<path d="M125.97 138.76C109.11 128.18 105.06 107.61 104.9 106.74L104.36 103.91L194.59 84.4L195.07 87.38C196.07 94.93 195.8 102.58 194.27 110.04C190.89 126.07 181.58 136.93 167.35 141.45C161.05 143.55 154.46 144.67 147.82 144.77C140.11 144.9 132.53 142.81 125.98 138.76M111.09 108.4C112.73 114 117.52 126.65 128.85 133.76C138.56 139.86 150.97 140.57 165.73 135.87C190.7 127.94 190.67 100.58 189.91 91.36L111.09 108.4Z" fill="#4C4C4B"/>
<path d="M182.95 89.71C181.48 89.75 183.27 100.02 182.43 104.61C181.59 109.2 180.12 115.36 184 115.45C187.88 115.54 185.98 112.03 184.45 108.89C182.92 105.75 185.01 89.65 182.95 89.71Z" fill="#624691"/>
<path d="M183.68 118.47C181.72 117.44 179.72 126.27 183.61 127.07C187.5 127.87 188.61 121.07 183.68 118.47Z" fill="#624691"/>
</g>
</g>
</g>
<defs>
<clipPath id="clip0_3078_935">
<rect width="220" height="206" fill="white"/>
</clipPath>
</defs>
</svg>
